<?xml version="1.0" standalone="no"?>
<!DOCTYPE svg PUBLIC "-//W3C//DTD SVG 20010904//EN"
 "http://www.w3.org/TR/2001/REC-SVG-20010904/DTD/svg10.dtd">
<svg version="1.0" xmlns="http://www.w3.org/2000/svg"
 width="500.000000pt" height="500.000000pt" viewBox="0 0 500.000000 500.000000"
 preserveAspectRatio="xMidYMid meet">

<g transform="translate(0.000000,500.000000) scale(0.100000,-0.100000)"
fill="#000000" stroke="none">
<path d="M1658 3894 c-4 -3 -30 -9 -60 -14 -29 -4 -90 -14 -135 -20 -70 -11
-83 -16 -83 -32 0 -10 11 -85 25 -166 14 -81 34 -196 45 -257 10 -60 26 -150
35 -200 22 -126 157 -913 178 -1040 3 -16 21 -124 41 -239 80 -462 28 -652
-209 -766 -213 -103 -471 -103 -685 -2 -75 36 -181 121 -225 181 -21 29 -37
41 -56 41 -23 0 -33 -14 -93 -131 l-68 -130 27 -39 c71 -102 221 -205 383
-261 200 -69 486 -66 732 7 334 101 523 310 562 623 14 113 4 327 -21 467 -12
61 -43 243 -71 405 -27 162 -64 373 -80 469 -104 594 -190 1094 -190 1103 0 8
-44 10 -52 1z"/>
<path d="M3435 3854 c-11 -3 -51 -12 -90 -21 -293 -68 -502 -282 -554 -570
-15 -79 -15 -242 -1 -313 27 -134 104 -273 202 -366 120 -114 235 -182 479
-284 68 -29 142 -60 164 -70 22 -10 51 -21 65 -25 47 -14 236 -111 296 -152
200 -136 265 -304 212 -548 -27 -125 -111 -247 -217 -314 -25 -16 -80 -40
-121 -52 -158 -49 -462 -21 -660 61 -210 87 -382 248 -476 447 -19 40 -41 74
-49 75 -8 0 -19 1 -24 2 -8 1 -74 -56 -199 -169 l-32 -30 43 -86 c181 -358
587 -591 1092 -627 524 -37 870 181 980 617 32 127 37 317 10 420 -64 248
-243 434 -560 581 -46 21 -172 75 -281 119 -371 151 -494 233 -559 373 -41 88
-51 172 -32 274 20 108 52 174 114 238 95 97 241 142 433 133 337 -16 598
-138 761 -358 36 -48 58 -69 73 -69 14 0 57 35 120 99 l98 99 -43 63 c-153
227 -370 353 -739 431 -72 15 -143 21 -290 24 -107 1 -204 1 -215 -2z"/>
</g>
</svg>
